<svg width="82" height="81" viewBox="0 0 82 81" fill="none" xmlns="http://www.w3.org/2000/svg">
    <path fill-rule="evenodd" clip-rule="evenodd" d="M1.0372 12.8513C0.608374 11.2509 1.55812 9.60587 3.15852 9.17705L6.37827 8.31432C11.5351 6.93255 16.8357 9.99284 18.2175 15.1497L29.433 57.0065C29.8618 58.6069 28.912 60.2519 27.3116 60.6807C25.7112 61.1095 24.0662 60.1598 23.6374 58.5594L12.4219 16.7026C11.8978 14.7466 9.88723 13.5858 7.93119 14.1099L4.71143 14.9726C3.11104 15.4014 1.46602 14.4517 1.0372 12.8513ZM38.3186 18.0458C34.5844 19.0464 32.3683 22.8848 33.3689 26.619L37.6825 42.7178C38.6831 46.452 42.5215 48.6681 46.2558 47.6675L62.3545 43.3539C66.0888 42.3533 68.3049 38.5149 67.3043 34.7807L62.9906 18.6819C61.99 14.9476 58.1517 12.7316 54.4174 13.7322L38.3186 18.0458ZM27.5733 28.1719C25.7151 21.2369 29.8307 14.1085 36.7657 12.2502L52.8645 7.9366C59.7995 6.07835 66.9279 10.1939 68.7862 17.129L73.0998 33.2277C74.9581 40.1628 70.8425 47.2912 63.9074 49.1494L47.8087 53.4631C40.8736 55.3213 33.7452 51.2057 31.887 44.2707L27.5733 28.1719ZM46.013 22.7603C46.8415 21.3255 48.6762 20.8338 50.1111 21.6623L56.2348 25.1978C57.6697 26.0262 58.1614 27.861 57.3329 29.2959C56.5325 30.6822 54.7927 31.188 53.3818 30.4735L54.9598 36.3629C55.3886 37.9633 54.4389 39.6083 52.8385 40.0371C51.2381 40.4659 49.5931 39.5162 49.1643 37.9158L47.5862 32.0264C46.7216 33.3507 44.9619 33.7825 43.5756 32.9821C42.1407 32.1537 41.6491 30.3189 42.4775 28.8841L46.013 22.7603ZM35.8849 65.6304C35.456 64.03 36.4058 62.385 38.0062 61.9562L71.8136 52.8975C73.414 52.4687 75.059 53.4185 75.4878 55.0189C75.9166 56.6193 74.9669 58.2643 73.3665 58.6931L39.5591 67.7518C37.9587 68.1806 36.3137 67.2308 35.8849 65.6304Z" fill="#262F56"/>
    <path fill-rule="evenodd" clip-rule="evenodd" d="M27.3116 60.6807C23.5773 61.6813 21.3613 65.5197 22.3619 69.2539C23.3625 72.9882 27.2008 75.2043 30.9351 74.2037C34.6693 73.2031 36.8854 69.3647 35.8848 65.6305C34.8842 61.8962 31.0459 59.6801 27.3116 60.6807ZM16.5663 70.8068C14.7081 63.8718 18.8236 56.7434 25.7587 54.8852C32.6938 53.0269 39.8221 57.1425 41.6804 64.0775C43.5386 71.0126 39.4231 78.141 32.488 79.9992C25.5529 81.8575 18.4246 77.7419 16.5663 70.8068Z" fill="#262F56"/>
</svg>